<svg xmlns="http://www.w3.org/2000/svg" viewBox="0 0 512 512">
  <defs/>
  <path d="M505.496 240.307l-194.59-194.59c-8.672-8.671-22.714-8.671-31.386 0-8.671 8.664-8.671 22.722 0 31.386L458.418 256 279.521 434.897c-8.671 8.664-8.671 22.722 0 31.386 4.336 4.336 10.011 6.504 15.693 6.504s11.365-2.168 15.693-6.504l194.59-194.59c8.671-8.664 8.671-22.722-.001-31.386zM232.479 240.307L37.889 45.717c-8.664-8.671-22.722-8.671-31.386 0-8.671 8.664-8.671 22.722 0 31.386L185.393 256 6.504 434.897c-8.671 8.664-8.671 22.722 0 31.386 4.328 4.336 10.011 6.504 15.693 6.504s11.365-2.168 15.693-6.504l194.59-194.59c8.67-8.664 8.67-22.722-.001-31.386z"/>
</svg>