<svg xmlns="http://www.w3.org/2000/svg" viewBox="0 0 170.05 170.05">
  <defs/>
  <path fill="#010002" d="M151.681 0c-1.647 0-2.983 1.343-2.983 2.983v88.882c0 14.804-12.047 26.851-26.851 26.851H26.15l41.571-41.535c1.164-1.164 1.164-3.061 0-4.219-1.164-1.164-3.055-1.164-4.219 0L15.38 121.056l48.123 48.123c.585.585 1.349.871 2.112.871.764 0 1.528-.292 2.112-.871 1.164-1.164 1.164-3.061 0-4.219l-40.27-40.276h94.396c18.098 0 32.818-14.72 32.818-32.818V2.983c-.007-1.64-1.337-2.983-2.99-2.983z"/>
</svg>